<svg height="100%" version="1.1" width="100%" xmlns="http://www.w3.org/2000/svg" preserveAspectRatio="xMidYMid meet" viewBox="0 0 600 442" xmlns:xlink="http://www.w3.org/1999/xlink"><desc>Created with Snap</desc><defs/><g id="root" contentwidth="215.3" contentheight="225.2">
          <rect class="background" height="2000%" width="2000%" y="-1000%" x="-1000%" style="" fill="#ffffff"/>
          <rect class="watermarklayer" height="100%" width="100%" y="0" x="0" style="" fill="none"/>
          <g class="content" id="content" transform="matrix(1,0,0,1,1.65,3.4)">
            <g class="icon">
            <svg height="153" version="1.1" width="78" xmlns="http://www.w3.org/2000/svg" x="287" y="105" preserveAspectRatio="none" transform="matrix(1,0,0,1,0,0)"><desc>Created with Snap</desc><defs/><svg xmlns="http://www.w3.org/2000/svg" viewBox="288 105 78 153"><path d="m299.976 105 66.031 38.228v.173l-12.22 7.074v-.173l-53.811-31.154V105Zm53.812 107.601 12.219 7.074v.173l-66 38.208v.02l-.016-.01-.015.01-.001-.02-12.196-7.061 12.207-7.079.005.003 53.797-31.145v-.173Z" id="prefix-kM3-形状结合" fill="#3574FE" fill-rule="nonzero"/></svg></svg><svg height="25" version="1.1" width="43" xmlns="http://www.w3.org/2000/svg" x="234" y="213" preserveAspectRatio="none" transform="matrix(1,0,0,1,0,0)"><desc>Created with Snap</desc><defs/><svg xmlns="http://www.w3.org/2000/svg" viewBox="234 213 43 25"><path d="M246.195 212.601v.173l31.239 18.086-12.203 7.082-31.255-18.094v-.173l12.219-7.074Z" id="prefix-NOl-形状结合" fill="#2B4DF9" fill-rule="nonzero"/></svg></svg><svg height="80" version="1.1" width="72" xmlns="http://www.w3.org/2000/svg" x="240" y="152" preserveAspectRatio="none" transform="matrix(1,0,0,1,0,0)"><desc>Created with Snap</desc><defs/><svg xmlns="http://www.w3.org/2000/svg" viewBox="240 152 72 80"><path d="m242.79 169.203 66.032 38.229v.172l-12.22 7.074v-.173l-53.812-31.154v-14.148Z" id="prefix-geH-形状结合备份-13" fill="#2B4DF9" fill-rule="nonzero" transform="rotate(120 275.806 191.941)"/></svg></svg><svg height="45" version="1.1" width="66" xmlns="http://www.w3.org/2000/svg" x="234" y="105" preserveAspectRatio="none" transform="matrix(1,0,0,1,0,0)"><desc>Created with Snap</desc><defs/><svg xmlns="http://www.w3.org/2000/svg" viewBox="234 105 66 45"><path d="m233.993 105 66.031 38.228v.173l-12.219 7.074v-.173l-53.812-31.154V105Z" id="prefix-aCO-形状结合备份-8" fill="#2B4DF9" fill-rule="nonzero" transform="matrix(-1 0 0 1 534.017 0)"/></svg></svg><svg height="80" version="1.1" width="72" xmlns="http://www.w3.org/2000/svg" x="201" y="143" preserveAspectRatio="none" transform="matrix(1,0,0,1,0,0)"><desc>Created with Snap</desc><defs/><svg xmlns="http://www.w3.org/2000/svg" viewBox="201 143 72 80"><path d="m204.179 160.382 66.031 38.228v.173l-12.22 7.074v-.173l-53.81-31.154v-14.148Z" id="prefix-w1m-形状结合备份-9" fill="#3574FE" fill-rule="nonzero" transform="scale(-1 1) rotate(60 0 -227.713)"/></svg></svg><svg height="80" version="1.1" width="72" xmlns="http://www.w3.org/2000/svg" x="326" y="143" preserveAspectRatio="none" transform="matrix(1,0,0,1,0,0)"><desc>Created with Snap</desc><defs/><svg xmlns="http://www.w3.org/2000/svg" viewBox="327 143 72 80"><path d="m329.79 160.382 66.031 38.228v.173l-12.22 7.074v-.173L329.79 174.53v-14.148Z" id="prefix-9j8-形状结合备份-10" fill="#2B4DF9" fill-rule="nonzero" transform="rotate(60 362.805 183.12)"/></svg></svg><svg height="59" version="1.1" width="88" xmlns="http://www.w3.org/2000/svg" x="265" y="172" preserveAspectRatio="none" transform="matrix(1,0,0,1,0,0)"><desc>Created with Snap</desc><defs/><svg xmlns="http://www.w3.org/2000/svg" viewBox="265 172 88 59"><path id="prefix-lDf-路径-7" fill="#3574FE" d="m265.212 223.763 12.22 7.096 76.26-44.422v-14.23z"/></svg></svg></g>
            <g id="icon_name_and_slogan_gap">
            </g>
            <g class="name_and_slogan" id="name_and_slogan_id">
              <g class="name"><g id="nameDefaultGroup"><path d="M220.4 313 Q220.4 315.7 218.7 317.6 Q216.9 319.5 214.5 319.5 L190.7 319.5 L190.7 278.4 L198.9 278.4 L198.9 290.9 L214.5 290.9 Q216.9 290.9 218.7 292.8 Q220.4 294.6 220.4 297.3 L220.4 313 Z M212.2 297.2 L198.9 297.2 L198.9 313.1 L212.2 313.1 L212.2 297.2 M235.5 285.2 Q234.2 286.5 232.5 286.5 Q230.7 286.5 229.5 285.2 Q228.2 283.8 228.2 282.2 Q228.2 280.5 229.5 279.1 Q230.8 277.9 232.5 277.9 Q234.3 277.9 235.5 279.1 Q236.8 280.3 236.8 282.2 Q236.8 283.8 235.5 285.2 Z M228.3 319.5 L236.5 319.5 L236.5 289.2 L228.3 289.2 L228.3 319.5 M272.6 313.1 L275.1 313.1 L275.1 319.5 L250.1 319.5 Q248.1 319.5 246.7 317.7 Q245.2 315.9 245.2 313.6 L245.2 289.2 L253.5 289.2 L253.5 313.1 L264.4 313.1 L264.4 289.2 L272.6 289.2 L272.6 313.1 M283.2 278.4 L291.5 278.4 L291.5 319.5 L283.2 319.5 L283.2 278.4 M307.5 285.2 Q306.2 286.5 304.5 286.5 Q302.7 286.5 301.5 285.2 Q300.2 283.8 300.2 282.2 Q300.2 280.5 301.5 279.1 Q302.8 277.9 304.5 277.9 Q306.3 277.9 307.5 279.1 Q308.8 280.3 308.8 282.2 Q308.8 283.8 307.5 285.2 Z M300.3 319.5 L308.5 319.5 L308.5 289.2 L300.3 289.2 L300.3 319.5 M337.2 323.8 L337.2 314.6 L321.9 314.6 Q319.4 314.6 317.8 312.8 Q316.1 310.9 316.1 308.4 L316.1 295.4 Q316.1 292.8 317.8 291 Q319.5 289.2 321.9 289.2 L339.5 289.2 Q341.9 289.2 343.7 291 Q345.4 292.8 345.4 295.4 L345.4 324 Q345.4 326.7 343.7 328.5 Q341.9 330.2 339.5 330.2 L317.1 330.2 L317.1 323.8 L337.2 323.8 Z M337.2 308.2 L337.2 295.6 L324.2 295.6 L324.2 308.2 L337.2 308.2 M371.2 298.7 L359.7 298.7 L359.7 319.5 L351.4 319.5 L351.4 278.4 L359.7 278.4 L359.7 292.4 L373.6 292.4 Q376 292.4 377.7 294.3 Q379.4 296.1 379.4 298.8 L379.4 319.5 L371.2 319.5 L371.2 298.7 M405.9 319.5 L396 319.5 Q393.6 319.5 391.9 317.7 Q390.2 316 390.2 313.6 L390.2 295.8 L384.5 295.8 L384.5 289.2 L390.2 289.2 L390.2 281.5 L398.4 281.5 L398.4 289.2 L406 289.2 L406 295.8 L398.4 295.8 L398.4 312.9 L405.9 312.9 L405.9 319.5 " style="" fill="#000000" transform="matrix(1,0,0,1,0,0)"/></g></g>
              <g class="slogan"><g id="sloganDefaultGroup"/></g>
            </g>
            <g class="border">
            </g>
          </g>
          <defs id="defs">
            <mask xmlns="http://www.w3.org/2000/svg" id="mask">
                <rect id="showAll" fill="white" x="201" y="105" width="197" height="153"/>
                <rect id="hideNameBg" fill="black" x="0" y="0" width="0" height="0" stroke-width="2" stroke="black"/>
                <rect id="hideSloganBg" fill="black" x="0" y="0" width="0" height="0" stroke-width="2" stroke="black"/>
            </mask>
          
          </defs>
        </g>
        </svg>